<?xml version="1.0" encoding="UTF-8" standalone="no"?>
<!DOCTYPE svg PUBLIC "-//W3C//DTD SVG 20010904//EN"
              "http://www.w3.org/TR/2001/REC-SVG-20010904/DTD/svg10.dtd">

<svg xmlns="http://www.w3.org/2000/svg"
     width="2.13333in" height="2.84444in"
     viewBox="0 0 192 256">
  <path id="Selection"
        fill="#d4f2d2" stroke="black" stroke-width="1"
        d="M 17.00,0.53
           C -0.90,5.88 0.00,18.86 0.00,34.00
             0.00,34.00 0.00,57.00 0.00,57.00
             0.00,57.00 0.00,231.00 0.00,231.00
             0.02,245.56 7.68,255.81 23.00,256.00
             23.00,256.00 167.00,256.00 167.00,256.00
             170.64,255.99 173.47,256.12 177.00,254.89
             192.55,249.48 192.00,236.40 192.00,223.00
             192.00,223.00 192.00,202.00 192.00,202.00
             192.00,202.00 192.00,25.00 192.00,25.00
             191.97,8.67 183.33,0.03 167.00,0.00
             167.00,0.00 68.00,0.00 68.00,0.00
             68.00,0.00 17.00,0.53 17.00,0.53 Z
           M 89.00,65.33
           C 95.60,64.59 102.89,64.45 109.00,67.33
             128.76,76.62 133.81,103.42 117.83,118.70
             110.26,125.93 103.94,127.12 94.00,127.00
             80.91,126.84 68.49,116.89 65.53,104.00
             64.87,101.12 64.97,97.01 65.00,94.00
             65.17,79.79 75.42,68.58 89.00,65.33 Z
           M 75.00,144.66
           C 86.55,146.67 83.95,148.07 98.00,148.00
             111.93,147.93 113.62,142.64 127.00,145.52
             143.31,149.02 152.95,162.59 151.91,179.00
             151.23,189.64 144.36,191.89 135.00,192.00
             135.00,192.00 59.00,192.00 59.00,192.00
             54.04,191.99 48.13,192.01 44.14,188.57
             37.58,182.92 40.02,166.50 44.14,160.00
             51.32,148.65 62.23,144.84 75.00,144.66 Z" />
</svg>
